<svg xmlns="http://www.w3.org/2000/svg" id="Layer_1" data-name="Layer 1" viewBox="0 0 896.16 313.94"><defs><style>.cls-1{fill:#094d9a}</style></defs><path d="M167.35 115.19c-11.43-4.78-18.63-2.52-25.89 2.63.4-2.05 1.5-5.68 2.35-7.44 1.17-2.42 2.66-4.66 4.5-6.7 3.72-4.12 9.05-7.35 16.5-7.56 6.54-.18 13.91 3.38 20.71 4.61 6.08 1.1 11.84 1.12 15.35-1.37-2.32 6.62-6.03 12.99-9.21 14.96-3.63 2.25-11.9 6.05-24.31.87" class="cls-1"/><path d="M123.39 117.2h13.84l17.58 44.06 13.71-25.56h-19.57l4.79-11.58h34.62l-25.16 47.8h-17.58l-22.23-54.72z" class="cls-1"/><path d="M156.97 5.25C73.31 5.25 5.25 73.31 5.25 156.97s68.06 151.72 151.72 151.72 151.72-68.06 151.72-151.72S240.63 5.25 156.97 5.25m0 308.69C70.41 313.94 0 243.52 0 156.97S70.41 0 156.97 0s156.97 70.42 156.97 156.97-70.41 156.97-156.97 156.97" class="cls-1"/><path d="M156.97 14.76c-78.42 0-142.22 63.79-142.22 142.21s63.8 142.21 142.21 142.21 142.21-63.8 142.21-142.21-63.78-142.21-142.2-142.21m0 287.93c-80.35 0-145.72-65.37-145.72-145.72S76.62 11.25 156.97 11.25s145.72 65.37 145.72 145.72-65.37 145.72-145.72 145.72" class="cls-1"/><path d="M156.97 72.44c-46.61 0-84.53 37.92-84.53 84.53s37.92 84.53 84.53 84.53 84.53-37.92 84.53-84.53-37.92-84.53-84.53-84.53m0 173.23c-48.91 0-88.7-39.79-88.7-88.7s39.79-88.7 88.7-88.7 88.7 39.79 88.7 88.7-39.79 88.7-88.7 88.7" class="cls-1"/><path d="M189.13 168.37c-.13-.7-.28-1.4-.46-2.09l6.77-4.15-2.83-6.86-7.73 1.81c-.55-.91-1.13-1.82-1.77-2.69-.04-.04-.28-.35-.45-.56l3.15-6.53-3.2-2.03-9.64 20.37-.52 1.19s.67.53 1.26 1.33c.72.97 1.06 2.03 1.06 2.03.12.36.26.79.3.99.21 1.15.33 2.33.33 3.51 0 4.85-1.76 9.53-4.95 13.17a19.739 19.739 0 0 1-12.2 6.63l-.15.03s-.86.19-2.51.19-2.69-.18-2.69-.18l-.13-.02c-9.84-1.32-17.27-9.83-17.27-19.82 0-1.8.14-2.94.73-5.29.66-2.63 2.06-3.77 2.06-3.77l-9.63-20.37-3.2 2.03 2.96 6.15c-.7.98-1.84 2.66-2.42 3.63l-7.73-1.86-2.83 6.86 6.78 4.21c-.18.69-.32 1.38-.46 2.08-.08.45-.16.9-.23 1.36l-7.86 1.23v7.43l7.86 1.29c.17 1.14.4 2.3.69 3.43l-6.8 4.16 2.84 6.86 7.75-1.82c.6.99 1.24 1.97 1.96 2.92l-4.69 6.46 5.22 5.24 6.47-4.68c.94.72 1.92 1.36 2.9 1.96l-1.87 7.76 6.84 2.85 4.2-6.8c1.13.29 2.28.51 3.43.68l1.25 7.89h7.4l1.29-7.88c1.15-.18 2.3-.4 3.43-.68l4.15 6.8 6.83-2.85-1.81-7.76c.99-.59 1.96-1.24 2.9-1.95l6.44 4.69 5.24-5.25-4.65-6.48c.7-.94 1.35-1.92 1.96-2.91l7.72 1.85 2.83-6.86-6.76-4.19c.29-1.14.52-2.29.69-3.44l7.84-1.25V171l-7.84-1.29c-.06-.45-.14-.9-.23-1.36M51.05 89.32l20.33 12.41-3.9 6.39L47.15 95.7l-4.03 6.6-4.98-3.05 11.93-19.54 4.99 3.05-4.01 6.56zM58.05 69.97l15.87-15.13L77.89 59 67.37 69.03l3.71 3.9 9.82-9.37 3.89 4.08L74.96 77l4.88 5.11L91.3 71.18l4.03 4.23-16.82 16.03-20.46-21.47zM120.39 54.33c-.26 4.74-2.46 9.79-7.98 12.56-7.02 3.52-15.25 1.27-19.76-7.7-3.94-7.85-1.72-16.72 5.78-20.49 4.88-2.45 10.76-1.79 14.64 1.25l-3.93 5.27c-1.56-1.71-4.96-2.59-7.67-1.23-4.28 2.15-4.53 7.26-2.31 11.69 2.92 5.82 7.34 7.22 10.91 5.43 3.45-1.73 3.63-4.83 3.76-6.82l6.55.04ZM146.4 56.14l-1.95-12.49-10.71 1.67 1.95 12.49-7.39 1.16-4.57-29.3 7.39-1.16 1.65 10.59 10.71-1.67-1.65-10.59 7.34-1.14 4.57 29.3-7.34 1.14zM179.8 58.17l-7.29-19.27-3.05 17.46-7.04-1.23 5.11-29.21 7.16 1.25 7.28 19.61 3.11-17.79 6.99 1.22-5.11 29.21-7.16-1.25zM195.37 63.121l12.116-27.061 6.745 3.02-12.117 27.06zM223.96 73.65c4.31 3.42 9.04.64 11.63-2.62 3.34-4.21 4.17-9.03.06-12.29-4.41-3.5-9.07-.4-11.56 2.73-2.95 3.72-4.31 8.87-.13 12.18m15.56-19.78c8.45 6.72 6.23 16.33 1.85 21.85-4.94 6.22-13.89 8.77-21.35 2.83-7.66-6.09-6.76-15.19-1.69-21.57 4.21-5.3 12.81-9.78 21.2-3.12M245.62 106.52l9.08-18.49-14.83 9.71-3.91-5.98 24.82-16.24 3.98 6.09-9.35 18.71 15.12-9.89 3.89 5.94-24.82 16.24-3.98-6.09zM29.206 143.31l.481-3.97 15.954 1.933-.482 3.97zM33.42 150.51c-.46.4-.83.74-1.28 1.53a6.498 6.498 0 0 0-.82 3.08c-.03 1.59.7 2.97 1.82 2.99 1.27.02 1.51-1.59 1.69-2.77.13-.89.26-1.77.45-2.63.22-.97.98-4.31 4.44-4.25 4.14.07 5.31 3.78 5.26 6.55-.06 3.71-1.89 5.68-3.16 7.05l-2.07-2.99c.51-.49.95-.94 1.32-1.57.33-.56.73-1.58.75-2.6.03-1.59-.87-2.4-1.65-2.42-1.23-.02-1.43 1.34-1.54 2.02-.23 1.7-.7 3.99-1.03 4.9-.72 1.83-2.16 2.74-3.98 2.71a5.327 5.327 0 0 1-3.39-1.33c-1.66-1.48-2.1-3.81-2.06-6.06.07-4.53 2.2-6.29 3.38-7.28l1.88 3.08ZM42.2 169.41l-4.31.56.42 3.29c.1.56.38 2.38 2.5 2.11 2.03-.26 1.91-1.73 1.82-2.57l-.44-3.39Zm2.46-4.38.93 7.18c.19 1.67.44 3.75-.95 5.42-.74.86-1.94 1.54-3.38 1.72-3.2.41-4.28-1.67-4.82-2.7l-5.89 4.5-.57-4.4 5.28-3.89-.32-2.5-5.69.73-.52-3.99 15.93-2.06ZM44.85 187.69c-.84.02-1.72.02-2.57.02-1.25-.01-3.23-.1-4.49-.13l1.08 3.93 5.98-3.81Zm4.25 1.07-13.92 9.96-1.13-4.12 2.27-1.45-1.57-5.71-2.69-.09-1.13-4.12L48 184.72l1.11 4.04ZM51.18 195.49l4.65 10.94-2.88 1.21-3.07-7.25-2.68 1.14 2.87 6.77-2.81 1.19-2.87-6.76-3.52 1.49 3.35 7.9-2.91 1.23-4.92-11.58 14.79-6.28zM57.41 209.36l2.02 3.46-10.98 6.38 3.15 5.43-2.93 1.71-5.16-8.9 13.9-8.08zM54.637 234.69l12.637-9.926 2.47 3.146-12.636 9.926zM72.01 230.86l2.76 2.81-1.78 6.63c-.72 2.49-.96 3.27-1.44 4.8l7.23-7.35 2.69 2.75-11.46 11.26-2.76-2.81 1.52-5.7c.68-2.71.85-3.26 1.61-5.54l-7.13 7.16-2.69-2.75 11.46-11.26ZM78.69 252.78c.05.61.1 1.11.48 1.93.51 1.1 1.25 1.92 2 2.49 1.27.96 2.81 1.19 3.49.3.77-1.02-.39-2.16-1.24-3-.64-.63-1.28-1.25-1.86-1.92-.66-.75-2.89-3.34-.8-6.09 2.5-3.3 6.18-2.05 8.4-.37 2.96 2.24 3.46 4.88 3.82 6.72l-3.64-.1c-.1-.7-.2-1.32-.49-2-.26-.6-.84-1.52-1.66-2.14-1.27-.96-2.45-.72-2.92-.1-.74.98.23 1.95.72 2.43 1.24 1.2 2.81 2.93 3.34 3.73 1.06 1.66.93 3.36-.17 4.81-.7.93-1.82 1.68-3.08 1.95-2.18.46-4.32-.56-6.11-1.92-3.61-2.74-3.78-5.49-3.87-7.02l3.6.3ZM95.21 251.08l10.7 6.22-1.6 2.76-3.6-2.1-6.48 11.16-3.48-2.03 6.48-11.15-3.62-2.1 1.6-2.76zM100.534 272.41l6.837-14.544 3.62 1.702-6.837 14.543zM112.36 260.34l11.61 4.27-1.1 2.99-3.9-1.43-4.45 12.1-3.78-1.39 4.45-12.1-3.93-1.45 1.1-2.99zM138.48 268.07l-1.99 8.74c-.37 1.5-.73 3.01-1.92 4.23-2.3 2.32-5.81 1.66-6.48 1.51-1.17-.27-2.51-.88-3.45-1.67-2.66-2.24-2.03-4.99-1.53-7.11l1.99-8.74 3.95.9-2.23 9.76c-.18.8-.31 1.47-.16 2.02.3.93 1.31 1.42 2.29 1.64 2.66.61 3.08-1.21 3.38-2.43l2.22-9.74 3.93.9ZM139.68 268.2l12.32 1.2-.31 3.17-4.15-.4-1.25 12.84-4.01-.39 1.25-12.84-4.16-.41.31-3.17zM153.4 269.46l11.87-.23.06 3.11-7.87.15.06 2.92 7.35-.14.06 3.04-7.35.15.07 3.82 8.58-.17.06 3.17-12.58.24-.31-16.06zM183.16 275.77c-.8-2-2.28-2.34-3.49-2.11-2.39.46-2.99 2.5-2.53 4.91.43 2.21 1.7 3.87 4 3.42 2.97-.57 2.6-3.7 2.42-4.77-.11-.67-.27-1.16-.4-1.46m-1.72 7.67c-3.64.7-5.71-1.73-6.24-4.5-.45-2.35.07-5.9 4.16-6.68 3.48-.67 5.61 1.72 6.15 4.61.59 3.2-.85 5.95-4.06 6.57M189.29 270.23l1.95-.54.4 1.44-1.95.54 2.47 8.88-1.69.47-2.47-8.88-1.73.48-.4-1.44 1.73-.48-.56-2.11c-.22-.88-.75-2.96 1.86-3.68.51-.14.97-.17 1.31-.22l.38 1.36c-.34.05-.75.11-.99.18-1.3.36-1.03 1.4-.8 2.21l.5 1.8ZM195.99 262.57l11.35-4.93 1.27 2.92-3.82 1.66 5.14 11.84-3.69 1.6-5.14-11.83-3.84 1.67-1.27-2.93zM208.59 257.01l10.25-5.99 1.58 2.69-6.8 3.97 1.47 2.51 6.35-3.7 1.53 2.63-6.34 3.71 1.93 3.3 7.4-4.33 1.6 2.73-10.86 6.35-8.11-13.87zM239.79 250.64c.11 1.1.22 2.17-.24 3.65-.24.8-.9 2.5-2.66 3.87-3.35 2.62-7.96 2.3-11.31-1.99-2.93-3.75-2.69-8.69.89-11.49 1.45-1.13 3.13-1.64 4.67-1.63 1.43.01 2.39.39 3.23.73l-1.53 3.22c-.5-.27-1.05-.53-1.97-.57-.99 0-1.71.33-2.23.73-2.04 1.6-1.63 4.33.02 6.45 2.17 2.78 4.67 3.05 6.37 1.72 1.65-1.29 1.42-2.95 1.27-4.02l3.49-.67ZM242.7 230l11.56 11.15-2.8 2.9-4.93-4.76-4.07 4.23 4.93 4.75-2.82 2.92-11.56-11.16 2.82-2.91 4.17 4.02 4.08-4.22-4.18-4.03 2.8-2.89zM244.89 227.33l2.27-3.21 6.84.57c2.58.26 3.39.36 4.98.57l-8.52-5.81 2.22-3.14 13.11 9.28-2.27 3.21-5.88-.48c-2.79-.19-3.36-.26-5.74-.6l8.31 5.74-2.22 3.14-13.11-9.28ZM262.42 206.46c-.96.29-1.83 1.02-2.32 2-1.09 2.18.14 4.52 2.75 5.82 3.42 1.71 5.64.43 6.48-1.27.85-1.71.55-4.15-2.42-5.76-1.48-.81-3.21-1.17-4.49-.79m9.94 8.06c-2.27 4.56-7.07 5.4-11.22 3.33-3.89-1.94-6.35-6.24-4.04-10.87.43-.86 1-1.69 1.74-2.41 3.72-3.64 8.65-1.54 9.63-1.05 2.49 1.24 4.16 3.5 4.65 5.73.46 1.98 0 3.79-.75 5.27M261.76 197.91l1.3-3.78 12.01 4.13 2.04-5.94 3.2 1.1-3.34 9.73-15.21-5.24zM271.54 177.97c-.85.52-1.51 1.45-1.73 2.52-.49 2.38 1.29 4.33 4.15 4.92 3.74.77 5.56-1.04 5.94-2.89.39-1.87-.54-4.15-3.82-4.94-1.63-.41-3.4-.31-4.54.39m11.67 5.24c-1.03 4.99-5.45 7.03-9.99 6.09-4.26-.88-7.74-4.41-6.69-9.46.19-.94.53-1.89 1.06-2.78 2.66-4.47 7.97-3.7 9.04-3.48 2.72.56 4.91 2.32 5.96 4.34.95 1.8.97 3.66.63 5.29M283.98 159.44c.58.69 1.76 2.12 1.62 4.83-.24 4.48-4.02 7.03-8.75 6.78-5.16-.27-8.41-3.8-8.17-8.37.23-4.25 3.06-6.17 4.08-6.87l1.68 3.14c-.89.52-2.35 1.38-2.47 3.61-.16 3.04 2.3 4.33 4.98 4.48 1.82.1 3.32-.32 4.16-1.06.69-.58 1.25-1.64 1.31-2.87.04-.73-.1-1.56-.5-2.24-.63-1.08-1.48-1.26-2.32-1.42l-.19 3.59-3.05-.16.37-6.98 8.91.47-.17 3.13-1.5-.08ZM269.64 155.87l-.37-4.61 5.21-3.89c-.47-.17-.56-.21-1.26-.56l-4.51-2.4-.37-4.56 8.93 5.38 7.58-.61.31 3.95-7.46.6-8.07 6.7ZM33.95 107.83l-11.55-4.91 1.36-3.22 3.64 1.54 6.55 6.59zM57 123.55l-37.29-13.57 1.2-3.29 34.21 12.45 1.88 4.41zM17.4 117.166l1.024-3.347 41.092 12.563-1.023 3.347zM51.13 133.36l-35.66-8.89.85-3.4 38.4 9.58-3.59 2.71zM17.94 132.64l-4.01-.78.67-3.44 11.77 2.29-8.43 1.93zM280.55 107.86l11.63-4.7-1.31-3.24-3.66 1.48-6.66 6.46zM257.22 123.18l37.52-12.91-1.14-3.31-34.43 11.85-1.95 4.37zM254.36 126.045l41.607-11.915.963 3.365-41.607 11.915zM262.92 133.09l35.81-8.26-.79-3.41-38.56 8.9 3.54 2.77zM296.12 132.95l4.02-.71-.61-3.44-11.8 2.08 8.39 2.07zM432.92 142.58v37.78h-11.76v-37.78h-12.14v-9.27H445v9.27h-12.08zM469.96 133.31h34.46v9.13h-22.84v8.53h21.33v8.94h-21.33v11.19h24.89v9.26h-36.51v-47.05zM574.29 169.63c-3.7 6.53-10.37 12.13-20.07 12.13-12.35 0-22.32-9.06-22.32-24.99 0-13.93 9.38-24.93 22.58-24.93 8.58 0 16.38 5.14 19.67 12.2l-9.24 4.67c-.99-3.53-5.15-7.2-9.9-7.2-7.53 0-11.49 7.07-11.49 14.93 0 10.33 5.22 15.46 11.49 15.46s8.52-4.26 10.1-7l9.18 4.73ZM628.76 180.36V160.3h-17.03v20.06h-11.75v-47.05h11.75v16.99h17.03v-16.99h11.69v47.05h-11.69zM699.75 180.36l-16.51-28.12v28.12h-11.22v-47.05h11.42l16.57 28.66v-28.66h11.16v47.05h-11.42zM742.74 133.31h11.62v47.05h-11.62zM806.19 171.77c8.64 0 11.75-8.13 11.75-14.73 0-8.53-3.7-15.33-11.95-15.33-8.85 0-11.55 8.47-11.55 14.8 0 7.53 3.36 15.26 11.75 15.26m-.2-39.93c16.97 0 23.63 14.13 23.63 25.33 0 12.6-8.52 24.59-23.5 24.59s-23.18-12.19-23.18-25.12c0-10.73 6.21-24.79 23.04-24.79M884.7 133.31v28.66l-16.57-28.66h-11.42v47.06h11.22v-28.13l16.51 28.13h11.42v-47.06H884.7zM424.98 75.72l-5.44 15h10.63l-5.19-15Zm10.48 30-3.88-10.98h-13.55l-3.98 10.98h-5.04l13.55-35.9h4.94l12.95 35.9h-4.99ZM506.64 105.72c0-.97.66-30.1.66-30.1l-11.23 30.1h-3.68l-11.03-29.64s.5 28.58.5 29.64h-4.63v-35.9h6.15l10.88 29.44 10.98-29.44h6.15v35.9h-4.74ZM553.54 105.72v-35.9h24.47v4.22h-19.94v11.09h17.33v4.17h-17.33v12.25h20.55v4.17h-25.08zM633.88 86.45c4.08 0 7.75-1.22 7.75-6.15 0-4.02-2.57-6.51-7.1-6.51H623.4v12.66h10.48Zm8.41 19.27-9.72-15.25h-9.17v15.25h-4.64v-35.9h16.02c6.8 0 11.53 3.25 11.53 10.47 0 4.37-1.86 8.8-8.36 9.86l9.97 15.56h-5.64ZM686.67 69.83h4.78v35.9h-4.78zM766 92.71c-1.21 5.8-6.29 13.93-17.53 13.93s-17.38-7.62-17.38-18.86 6.7-18.87 17.98-18.87c8.46 0 13.85 4.12 16.22 10.99l-4.79.96c-1.26-4.02-4.84-8.14-11.48-8.14-8.11 0-12.69 6.05-12.69 14.8 0 10.27 5.59 15.1 12.74 15.1 5.54 0 10.63-3.25 11.79-10.53l5.14.61ZM815.31 75.72l-5.44 15h10.63l-5.19-15Zm10.48 30-3.88-10.98h-13.55l-3.98 10.98h-5.04l13.55-35.9h4.94l12.95 35.9h-4.99ZM891.58 105.72l-19.49-29.19s.45 28.48.45 29.19h-4.48v-35.9h4.48l19.24 28.78s-.2-27.66-.2-28.78h4.28v35.9h-4.28ZM413.8 232.62c.05 1.42.35 9.29 10.2 9.29 2.97 0 8.85-1.17 8.85-7.15 0-4.01-2.92-5.18-6.74-5.94l-3.22-.66c-7.99-1.62-12.47-4.21-12.47-10.2 0-2.84 1.26-5.22 3.37-7 3.42-2.84 7.49-2.94 9.2-2.94 3.52 0 6.94.46 9.8 2.69 3.12 2.39 3.92 4.97 4.52 8.32l-4.78.3c0-2.03-1.1-7.61-9.15-7.61-3.37 0-8.09 1.22-8.09 5.63 0 3.45 3.07 4.67 7.09 5.63l6.48 1.57c1.66.4 9.05 2.03 9.05 9.89 0 1.42-.2 4.62-2.96 7.36-1.96 1.93-5.18 3.86-11.21 3.86-1.16 0-5.98-.05-9.7-2.49-4.72-3.1-5.18-8.37-5.33-9.9l5.08-.66ZM507.24 241.91c7.04 0 12.62-4.77 12.62-15.38 0-7.1-3.16-14.66-12.72-14.66s-12.77 7.51-12.77 14.97c0 9.23 4.88 15.07 12.87 15.07m-.25 3.75c-9.2 0-17.74-6.04-17.74-18.88s8.8-18.77 17.9-18.77c10.81 0 17.84 7.66 17.84 18.52 0 8.73-4.72 19.13-18 19.13M611.09 231.75c-1.2 5.78-6.28 13.91-17.49 13.91s-17.34-7.61-17.34-18.83S582.95 208 594.21 208c8.44 0 13.82 4.11 16.18 10.96l-4.78.96c-1.26-4.01-4.82-8.12-11.46-8.12-8.09 0-12.67 6.04-12.67 14.76 0 10.25 5.58 15.07 12.72 15.07 5.53 0 10.6-3.25 11.76-10.5l5.13.61ZM661.86 208.92h4.78v35.82h-4.78zM721.33 244.75v-35.83h24.43v4.21h-19.91v11.06h17.3v4.16h-17.3v12.23h20.51v4.17h-25.03zM808.89 213.08v31.67h-4.72v-31.67h-10.66v-4.16h25.99v4.16h-10.61zM890.53 208.92l-9.45 15.17-9.35-15.17h-5.58l12.46 19.43v16.4h4.78v-16.4l12.77-19.43h-5.63zM350.51 68.91h4.93v175.81h-4.93zM366.61 68.91h4.93v175.81h-4.93z" class="cls-1"/></svg>